<svg width="13" height="13" viewBox="0 0 13 13" fill="none" xmlns="http://www.w3.org/2000/svg">
<rect x="0.5" y="0.5" width="12" height="12" rx="2.5" stroke="white"/>
<path d="M2.671 10V4.61H3.661V10H2.671ZM2.671 3.4V2.3H3.661V3.4H2.671ZM5.00205 10V4.61H5.77205L5.97005 5.644L5.58505 5.479C5.94805 5.07567 6.30189 4.81167 6.64655 4.687C6.99489 4.56233 7.33405 4.5 7.66405 4.5C8.45239 4.5 9.01522 4.72733 9.35255 5.182C9.69355 5.63667 9.86405 6.25267 9.86405 7.03V10H8.87405V7.03C8.87405 6.458 8.76772 6.04 8.55505 5.776C8.34239 5.512 7.97939 5.38 7.46605 5.38C7.10305 5.38 6.76939 5.46067 6.46505 5.622C6.16439 5.77967 5.96639 6.03267 5.87105 6.381L5.99205 5.776V10H5.00205Z" fill="white"/>
</svg>
