<svg width="13" height="13" viewBox="0 0 13 13" fill="none" xmlns="http://www.w3.org/2000/svg">
<path d="M4.14432 6.53786C4.63736 7.55603 5.46067 8.37723 6.4801 8.86766C6.5553 8.90326 6.63848 8.91867 6.72144 8.91237C6.8044 8.90607 6.88429 8.87828 6.95325 8.83172L8.45055 7.83153C8.5167 7.78666 8.59314 7.75928 8.67274 7.75195C8.75233 7.74462 8.83249 7.75757 8.90572 7.7896L11.7087 8.99343C11.8045 9.0333 11.8845 9.10356 11.9364 9.19338C11.9884 9.2832 12.0094 9.38761 11.9961 9.49053C11.9073 10.1839 11.5689 10.8212 11.0441 11.2831C10.5194 11.745 9.84435 11.9998 9.14529 12C6.98503 12 4.91324 11.1418 3.3857 9.6143C1.85816 8.08676 1 6.01497 1 3.85471C1.00016 3.15565 1.25503 2.4806 1.71692 1.95587C2.17881 1.43114 2.81608 1.0927 3.50947 1.00386C3.61239 0.990636 3.7168 1.01161 3.80662 1.06356C3.89644 1.11551 3.9667 1.19554 4.00657 1.29134L5.2104 4.10027C5.2417 4.17234 5.2548 4.25102 5.24853 4.32935C5.24227 4.40768 5.21683 4.48327 5.17446 4.54945L4.17427 6.07071C4.12974 6.13951 4.1036 6.21859 4.09836 6.30038C4.09312 6.38217 4.10894 6.46394 4.14432 6.53786V6.53786Z" stroke="white" stroke-linecap="round" stroke-linejoin="round"/>
</svg>
